<?xml version="1.0" encoding="UTF-8" standalone="no"?>
<!-- Created using Krita: https://krita.org -->

<svg
   width="648.72pt"
   height="265.68pt"
   viewBox="0 0 648.72 265.68"
   version="1.1"
   id="svg183"
   sodipodi:docname="ferris.svg"
   inkscape:version="1.1 (c68e22c387, 2021-05-23)"
   xmlns:inkscape="http://www.inkscape.org/namespaces/inkscape"
   xmlns:sodipodi="http://sodipodi.sourceforge.net/DTD/sodipodi-0.dtd"
   xmlns="http://www.w3.org/2000/svg"
   xmlns:svg="http://www.w3.org/2000/svg">
  <sodipodi:namedview
     id="namedview185"
     pagecolor="#ffffff"
     bordercolor="#111111"
     borderopacity="1"
     inkscape:pageshadow="0"
     inkscape:pageopacity="0"
     inkscape:pagecheckerboard="1"
     inkscape:document-units="pt"
     showgrid="false"
     inkscape:zoom="2.3458673"
     inkscape:cx="432.46266"
     inkscape:cy="185.21935"
     inkscape:window-width="2512"
     inkscape:window-height="1034"
     inkscape:window-x="1968"
     inkscape:window-y="0"
     inkscape:window-maximized="1"
     inkscape:current-layer="svg183" />
  <defs
     id="defs121" />
  <path
     id="shape0"
     transform="matrix(0.719999994922123 0 0 0.719999994922123 202.351678572893 51.120000576339)"
     fill="#ffffff"
     fill-rule="evenodd"
     stroke="#000000"
     stroke-opacity="0"
     stroke-width="0"
     stroke-linecap="square"
     stroke-linejoin="bevel"
     d="M8 0C14.51 5.823 16.749 15.918 19 26C11.465 27.868 11.688 21.979 5 23C6.554 15.779 0.31 16.356 0 11C1.873 6.54 4.914 3.247 8 0Z" />
  <path
     id="shape1"
     transform="matrix(0.719999994922123 0 0 0.719999994922123 469.743731759825 53.2800005611054)"
     fill="#ffffff"
     fill-rule="evenodd"
     stroke="#000000"
     stroke-opacity="0"
     stroke-width="0"
     stroke-linecap="square"
     stroke-linejoin="bevel"
     d="M2.62215 0C5.40615 3.633 2.64915 17.653 3.62215 26C-3.59585 19.905 2.11715 9.238 2.62215 0Z" />
  <path
     id="shape2"
     transform="matrix(0.719999994922123 0 0 0.719999994922123 414.730807929199 68.7793814839777)"
     fill="#ffffff"
     fill-rule="evenodd"
     stroke="#000000"
     stroke-opacity="0"
     stroke-width="0"
     stroke-linecap="square"
     stroke-linejoin="bevel"
     d="M6.02898 6.47308C2.51298 8.20908 -0.319015 5.37708 0.0289849 0.473082C2.73998 -1.50692 5.48298 3.16108 6.02898 6.47308Z" />
  <path
     id="shape3"
     transform="matrix(0.719999994922123 0 0 0.719999994922123 230.431678374856 69.8400004443142)"
     fill="#ffffff"
     fill-rule="evenodd"
     stroke="#000000"
     stroke-opacity="0"
     stroke-width="0"
     stroke-linecap="square"
     stroke-linejoin="bevel"
     d="M6 0C11.287 1.504 5.289 12.841 7 17C3.927 16.74 2.503 14.831 0 14C2.414 9.747 1.172 1.838 6 0Z" />
  <path
     id="shape4"
     transform="matrix(0.719999994922123 0 0 0.719999994922123 500.431676470652 75.6000004036912)"
     fill="#ffffff"
     fill-rule="evenodd"
     stroke="#000000"
     stroke-opacity="0"
     stroke-width="0"
     stroke-linecap="square"
     stroke-linejoin="bevel"
     d="M6 0C10.389 5.115 4.439 14.356 0 17C1.957 11.29 4.494 6.161 6 0Z" />
  <path
     id="shape5"
     transform="matrix(0.719999994922123 0 0 0.719999994922123 532.78427110477 76.3200003986133)"
     fill="#ffffff"
     fill-rule="evenodd"
     stroke="#000000"
     stroke-opacity="0"
     stroke-width="0"
     stroke-linecap="square"
     stroke-linejoin="bevel"
     d="M6.06584 0C11.0068 3.282 2.44984 7.668 1.06584 11C-2.73216 5.829 4.73884 3.37 6.06584 0Z" />
  <path
     id="shape6"
     transform="matrix(0.719999994922123 0 0 0.719999994922123 546.329557470745 77.7333976828269)"
     fill="#ffffff"
     fill-rule="evenodd"
     stroke="#000000"
     stroke-opacity="0"
     stroke-width="0"
     stroke-linecap="square"
     stroke-linejoin="bevel"
     d="M37.2529 1.03695C28.5239 15.9749 11.9749 23.0919 0.252943 35.0369C-1.16906 32.2559 3.75694 28.6669 6.25294 26.0369C14.2939 17.5649 24.5959 6.12995 35.2529 0.0369482C36.4149 -0.126052 37.0319 0.257948 37.2529 1.03695Z" />
  <path
     id="shape7"
     transform="matrix(0.719999994922123 0 0 0.719999994922123 594.031675810528 82.8000003529124)"
     fill="#000000"
     fill-rule="evenodd"
     stroke="#000000"
     stroke-opacity="0"
     stroke-width="0"
     stroke-linecap="square"
     stroke-linejoin="bevel"
     d="M6 0C7.987 0.013 7.271 2.729 10 2C7.768 4.768 4.425 6.425 0 7C0.497 3.164 3.792 2.125 6 0Z" />
  <path
     id="shape8"
     transform="matrix(0.719999994922123 0 0 0.719999994922123 462.975223022248 89.9999705785587)"
     fill="#ffffff"
     fill-rule="evenodd"
     stroke="#000000"
     stroke-opacity="0"
     stroke-width="0"
     stroke-linecap="square"
     stroke-linejoin="bevel"
     d="M1.02285 4.12827e-05C5.03985 -0.0169587 3.80185 5.22004 4.02285 9.00004C-0.0981476 9.26504 -0.967148 2.72004 1.02285 4.12827e-05Z" />
  <path
     id="shape9"
     transform="matrix(0.719999994922123 0 0 0.719999994922123 424.831677003829 91.4400002919779)"
     fill="#ffffff"
     fill-rule="evenodd"
     stroke="#000000"
     stroke-opacity="0"
     stroke-width="0"
     stroke-linecap="square"
     stroke-linejoin="bevel"
     d="M0 0C3.254 2.08 4.093 6.574 7 9C4.018 10.607 1.001 3.696 0 0Z" />
  <path
     id="shape10"
     transform="matrix(0.719999994922123 0 0 0.719999994922123 251.311678227598 92.1600002869)"
     fill="#ffffff"
     fill-rule="evenodd"
     stroke="#000000"
     stroke-opacity="0"
     stroke-width="0"
     stroke-linecap="square"
     stroke-linejoin="bevel"
     d="M3 0C7.447 0.577 3.159 7.586 3 10C0.946 9.721 1.004 7.329 0 6C0.016 3.016 2.6 2.6 3 0Z" />
  <path
     id="shape11"
     transform="matrix(0.719999994922123 0 0 0.719999994922123 387.302957130913 101.520000220888)"
     fill="#ffffff"
     fill-rule="evenodd"
     stroke="#000000"
     stroke-opacity="0"
     stroke-width="0"
     stroke-linecap="square"
     stroke-linejoin="bevel"
     d="M0.123222 0C2.77822 1.012 5.81222 1.644 6.12322 5C3.41122 4.045 -0.771778 4.562 0.123222 0Z" />
  <path
     id="shape12"
     transform="matrix(0.719999994922123 0 0 0.719999994922123 555.151676084734 101.520000220888)"
     fill="#ffffff"
     fill-rule="evenodd"
     stroke="#000000"
     stroke-opacity="0"
     stroke-width="0"
     stroke-linecap="square"
     stroke-linejoin="bevel"
     d="M25 0C27.797 3.82 20.009 5.185 22 9C15.141 8.946 9.472 18.369 0 19C6.4 10.734 18.126 7.793 25 0Z" />
  <path
     id="shape13"
     transform="matrix(0.719999994922123 0 0 0.719999994922123 572.431675962864 102.960000210732)"
     fill="#ffffff"
     fill-rule="evenodd"
     stroke="#000000"
     stroke-opacity="0"
     stroke-width="0"
     stroke-linecap="square"
     stroke-linejoin="bevel"
     d="M8 0C6.088 2.421 3.568 4.235 0 5C1.912 2.579 4.432 0.765 8 0Z" />
  <path
     id="shape14"
     transform="matrix(0.719999994922123 0 0 0.719999994922123 81.3916794259765 105.120000195498)"
     fill="#ffffff"
     fill-rule="evenodd"
     stroke="#000000"
     stroke-opacity="0"
     stroke-width="0"
     stroke-linecap="square"
     stroke-linejoin="bevel"
     d="M4 0C5.817 1.183 4.786 5.214 6 7C4 7 2 7 0 7C0.016 3.349 2.843 2.509 4 0Z" />
  <path
     id="shape15"
     transform="matrix(0.719999994922123 0 0 0.719999994922123 460.109081336354 108.720000170109)"
     fill="#ffffff"
     fill-rule="evenodd"
     stroke="#000000"
     stroke-opacity="0"
     stroke-width="0"
     stroke-linecap="square"
     stroke-linejoin="bevel"
     d="M1.0036 0C4.0556 1.078 6.2256 6.8 4.0036 10C2.9406 6.932 -2.1174 4.099 1.0036 0Z" />
  <path
     id="shape16"
     transform="matrix(0.719999994922123 0 0 0.719999994922123 393.871677222178 118.800000099019)"
     fill="#ffffff"
     fill-rule="evenodd"
     stroke="#000000"
     stroke-opacity="0"
     stroke-width="0"
     stroke-linecap="square"
     stroke-linejoin="bevel"
     d="M0 0C2.462 2.205 7.666 1.667 8 6C3.569 5.764 0.859 3.808 0 0Z" />
  <path
     id="shape17"
     transform="matrix(0.719999994922123 0 0 0.719999994922123 267.151678115884 120.354694094176)"
     fill="#ffffff"
     fill-rule="evenodd"
     stroke="#000000"
     stroke-opacity="0"
     stroke-width="0"
     stroke-linecap="square"
     stroke-linejoin="bevel"
     d="M17 70.8407C4.952 61.7957 12.665 42.1807 11 26.8407C9.884 16.5527 4.385 12.8607 0 5.8407C3.649 -2.6313 17.084 -1.8203 19 7.8407C19.743 11.5887 16.61 17.5777 16 22.8407C14.004 40.0447 15.725 60.5667 17 70.8407Z" />
  <path
     id="shape18"
     transform="matrix(0.719999994922123 0 0 0.719999994922123 607.711675714049 126.180393640689)"
     fill="#ffffff"
     fill-rule="evenodd"
     stroke="#000000"
     stroke-opacity="0"
     stroke-width="0"
     stroke-linecap="square"
     stroke-linejoin="bevel"
     d="M18 0.749453C13.971 4.77345 6.563 3.18445 0 2.74945C4.956 -0.419547 11.685 -0.494547 18 0.749453Z" />
  <path
     id="shape19"
     transform="matrix(0.719999994922123 0 0 0.719999994922123 65.4801507002035 136.07999997715)"
     fill="#ffffff"
     fill-rule="evenodd"
     stroke="#000000"
     stroke-opacity="0"
     stroke-width="0"
     stroke-linecap="square"
     stroke-linejoin="bevel"
     d="M1.09935 0C3.27535 0.887 4.15435 5.584 0.0993456 5C-0.219654 2.681 0.260346 1.161 1.09935 0Z" />
  <path
     id="shape20"
     transform="matrix(0.719999994922123 0 0 0.719999994922123 549.971849258776 137.389933419738)"
     fill="#ffffff"
     fill-rule="evenodd"
     stroke="#000000"
     stroke-opacity="0"
     stroke-width="0"
     stroke-linecap="square"
     stroke-linejoin="bevel"
     d="M5.1942 1.18065C6.7242 4.25365 -1.3358 4.25365 0.194204 1.18065C0.800204 0.604648 4.9372 -1.16035 5.1942 1.18065Z" />
  <path
     id="shape21"
     transform="matrix(0.719999994922123 0 0 0.719999994922123 473.071676663611 138.209730614229)"
     fill="#ffffff"
     fill-rule="evenodd"
     stroke="#000000"
     stroke-opacity="0"
     stroke-width="0"
     stroke-linecap="square"
     stroke-linejoin="bevel"
     d="M2 0.0420408C3.615 -0.239959 3.722 0.987041 5 1.04204C3.725 3.10104 3.405 6.11404 0 6.04204C0.576 3.95104 2.479 3.18804 2 0.0420408Z" />
  <path
     id="shape22"
     transform="matrix(0.719999994922123 0 0 0.719999994922123 26.9950856105749 139.451672868088)"
     fill="#ffffff"
     fill-rule="evenodd"
     stroke="#000000"
     stroke-opacity="0"
     stroke-width="0"
     stroke-linecap="square"
     stroke-linejoin="bevel"
     d="M39.5508 6.31712C38.2368 11.3371 35.4248 14.8571 33.5508 19.3171C33.7858 25.4151 39.0208 26.5141 40.5508 31.3171C38.8998 40.1681 38.8358 52.8561 42.5508 59.3171C29.1828 72.9491 16.5668 87.3341 4.55083 102.317C-2.47717 98.2111 0.796825 91.8361 0.550825 84.3171C-0.407175 55.0521 6.82983 21.5541 18.5508 1.31712C25.7828 -2.36088 34.1488 2.43012 39.5508 6.31712Z" />
  <path
     id="shape23"
     transform="matrix(0.719999994922123 0 0 0.719999994922123 59.0716795833907 140.788396689895)"
     fill="#ffffff"
     fill-rule="evenodd"
     stroke="#000000"
     stroke-opacity="0"
     stroke-width="0"
     stroke-linecap="square"
     stroke-linejoin="bevel"
     d="M29 2.46056C21.077 2.85356 16.053 6.90556 9 10.4606C14.067 13.4286 5.829 11.7406 6 15.4606C3.644 15.4826 3.056 13.7376 0 14.4606C8.369 7.30556 19.27 -5.35144 29 2.46056Z" />
  <path
     id="shape24"
     transform="matrix(0.719999994922123 0 0 0.719999994922123 492.511676526509 143.279999926371)"
     fill="#ffffff"
     fill-rule="evenodd"
     stroke="#000000"
     stroke-opacity="0"
     stroke-width="0"
     stroke-linecap="square"
     stroke-linejoin="bevel"
     d="M8 0C9.996 3.369 5.031 8.334 0 8C1.092 3.759 6.464 3.797 8 0Z" />
  <path
     id="shape25"
     transform="matrix(0.719999994922123 0 0 0.719999994922123 591.871675825762 149.039999885748)"
     fill="#ffffff"
     fill-rule="evenodd"
     stroke="#000000"
     stroke-opacity="0"
     stroke-width="0"
     stroke-linecap="square"
     stroke-linejoin="bevel"
     d="M28 0C24.451 8.278 8.756 8.761 0 6C4.043 -0.716 21.465 0.923 28 0Z" />
  <path
     id="shape26"
     transform="matrix(0.719999994922123 0 0 0.719999994922123 220.295426441618 156.254963282758)"
     fill="#ffffff"
     fill-rule="evenodd"
     stroke="#000000"
     stroke-opacity="0"
     stroke-width="0"
     stroke-linecap="square"
     stroke-linejoin="bevel"
     d="M5.07813 2.97922C3.58413 4.56622 -0.622872 4.44122 0.0781278 0.979217C1.57213 -0.607783 5.77913 -0.482783 5.07813 2.97922Z" />
  <path
     id="shape27"
     transform="matrix(0.719999994922123 0 0 0.719999994922123 514.111676374172 162.719999789268)"
     fill="#ffffff"
     fill-rule="evenodd"
     stroke="#000000"
     stroke-opacity="0"
     stroke-width="0"
     stroke-linecap="square"
     stroke-linejoin="bevel"
     d="M11 0C9.265 3.265 3.395 2.395 0 4C0.778 -0.222 6.985 0.985 11 0Z" />
  <path
     id="shape28"
     transform="matrix(0.719999994922123 0 0 0.719999994922123 443.949259066041 165.394057965091)"
     fill="#ffffff"
     fill-rule="evenodd"
     stroke="#000000"
     stroke-opacity="0"
     stroke-width="0"
     stroke-linecap="square"
     stroke-linejoin="bevel"
     d="M3.4478 1.28603C7.4018 -1.02297 11.1798 -0.33897 12.4478 4.28603C16.6688 19.686 -9.0232 8.56503 3.4478 1.28603Z" />
  <path
     id="shape29"
     transform="matrix(0.719999994922123 0 0 0.719999994922123 483.324392540025 166.8481019887)"
     fill="#ffffff"
     fill-rule="evenodd"
     stroke="#000000"
     stroke-opacity="0"
     stroke-width="0"
     stroke-linecap="square"
     stroke-linejoin="bevel"
     d="M7.76012 0.266525C9.98912 2.61952 10.8411 9.17452 7.76012 11.2665C-2.47088 13.5755 -2.70188 -2.22048 7.76012 0.266525Z" />
  <path
     id="shape30"
     transform="matrix(0.719999994922123 0 0 0.719999994922123 180.72759415476 170.129052876976)"
     fill="#ffffff"
     fill-rule="evenodd"
     stroke="#000000"
     stroke-opacity="0"
     stroke-width="0"
     stroke-linecap="square"
     stroke-linejoin="bevel"
     d="M6.03345 3.70965C4.21045 6.39065 -0.438549 5.56665 0.0334508 0.709648C3.05745 -0.719352 5.80445 -0.121352 6.03345 3.70965Z" />
  <path
     id="shape31"
     transform="matrix(0.719999994922123 0 0 0.719999994922123 511.231676394484 180.205265408738)"
     fill="#ffffff"
     fill-rule="evenodd"
     stroke="#000000"
     stroke-opacity="0"
     stroke-width="0"
     stroke-linecap="square"
     stroke-linejoin="bevel"
     d="M0 1.71491C5.084 -4.20809 7.988 7.58991 0 1.71491Z" />
  <path
     id="shape32"
     transform="matrix(0.719999994922123 0 0 0.719999994922123 594.271068160756 182.483752423227)"
     fill="#ffffff"
     fill-rule="evenodd"
     stroke="#000000"
     stroke-opacity="0"
     stroke-width="0"
     stroke-linecap="square"
     stroke-linejoin="bevel"
     d="M13.6675 1.55034C11.5965 2.14534 7.09851 0.314343 6.66751 2.55034C-10.8915 1.36734 11.5415 -1.92866 13.6675 1.55034Z" />
  <path
     id="shape33"
     transform="matrix(0.719999994922123 0 0 0.719999994922123 586.102091852374 195.303780475693)"
     fill="#ffffff"
     fill-rule="evenodd"
     stroke="#000000"
     stroke-opacity="0"
     stroke-width="0"
     stroke-linecap="square"
     stroke-linejoin="bevel"
     d="M13.0133 0.744749C8.75731 1.85675 1.08231 3.35775 0.0133111 0.744749C-0.411689 -0.292251 9.45631 -0.203251 13.0133 0.744749Z" />
  <path
     id="shape34"
     transform="matrix(0.719999994922123 0 0 0.719999994922123 464.431676724546 210.239999454128)"
     fill="#ffffff"
     fill-rule="evenodd"
     stroke="#000000"
     stroke-opacity="0"
     stroke-width="0"
     stroke-linecap="square"
     stroke-linejoin="bevel"
     d="M12 0C15.244 0.756 16.344 3.656 16 8C10.667 8 5.333 8 0 8C4.58 6.051 0.33 1.172 7 1C6.721 3.279 7.241 4.759 9 5C12.124 5.458 12.197 2.863 12 0Z" />
  <path
     id="shape35"
     transform="matrix(0.719999994922123 0 0 0.719999994922123 483.134823337315 211.671448969482)"
     fill="#ffffff"
     fill-rule="evenodd"
     stroke="#000000"
     stroke-opacity="0"
     stroke-width="0"
     stroke-linecap="square"
     stroke-linejoin="bevel"
     d="M3.02341 0.0118757C8.31041 -0.275124 8.31241 4.72288 12.0234 6.01188C9.98541 8.30688 3.71841 6.37388 0.0234073 7.01188C-0.358593 3.29588 4.07641 4.39788 3.02341 0.0118757Z" />
  <path
     id="shape36"
     transform="matrix(0.719999994922123 0 0 0.719999994922123 455.791676785481 214.522468022342)"
     fill="#ffffff"
     fill-rule="evenodd"
     stroke="#000000"
     stroke-opacity="0"
     stroke-width="0"
     stroke-linecap="square"
     stroke-linejoin="bevel"
     d="M10 3.05213C6.667 3.05213 3.333 3.05213 0 3.05213C0.383 -1.01087 9.485 -1.02387 10 3.05213Z" />
  <path
     id="shape37"
     transform="matrix(0.719999994922123 0 0 0.719999994922123 177.83561068158 215.279999418583)"
     fill="#ffffff"
     fill-rule="evenodd"
     stroke="#000000"
     stroke-opacity="0"
     stroke-width="0"
     stroke-linecap="square"
     stroke-linejoin="bevel"
     d="M5.05009 0C7.69709 2.604 2.92409 7.378 0.0500945 5C-0.533905 1.083 4.16309 2.446 5.05009 0Z" />
  <g
     id="group0"
     transform="matrix(0.719999994922123 0 0 0.719999994922123 0 9.36868257213064e-07)"
     opacity="0.7"
     fill="none">
    <path
       id="shape39"
       transform="translate(338.044, 240.930250823833)"
       opacity="0.7"
       fill="#00003f"
       fill-rule="evenodd"
       stroke="#000000"
       stroke-opacity="0"
       stroke-width="0"
       stroke-linecap="square"
       stroke-linejoin="bevel"
       d="M19 0.0697492C22.234 4.38675 21.449 7.02575 20 13.0697C15.416 15.0327 5.534 16.3117 0 14.0697C0 12.7367 0 11.4027 0 10.0697C3.394 8.46375 9.4 9.46975 12 7.06975C9.733 1.68475 12.868 -0.424251 19 0.0697492Z" />
    <path
       id="shape40"
       transform="translate(372.044, 253.508988459391)"
       opacity="0.7"
       fill="#00003f"
       fill-rule="evenodd"
       stroke="#000000"
       stroke-opacity="0"
       stroke-width="0"
       stroke-linecap="square"
       stroke-linejoin="bevel"
       d="M17 5.49101C15.461 10.952 5.336 7.82701 0 9.49101C0 6.82401 0 4.15801 0 1.49101C6.872 -1.30399 13.997 -0.277988 17 5.49101Z" />
    <path
       id="shape41"
       transform="translate(245.044, 266.35082488035)"
       opacity="0.7"
       fill="#00003f"
       fill-rule="evenodd"
       stroke="#000000"
       stroke-opacity="0"
       stroke-width="0"
       stroke-linecap="square"
       stroke-linejoin="bevel"
       d="M83 0.649175C72.694 13.3432 56.864 20.5132 41 27.6492C36.854 28.7952 37.104 25.5452 34 25.6492C24.095 27.9602 9.78 36.5012 0 29.6492C8.358 20.6842 23.146 21.6782 35 17.6492C48.091 13.1992 60.647 7.91718 71 0.649175C76.556 2.95118 78.606 -1.61382 83 0.649175Z" />
    <path
       id="shape42"
       transform="translate(134.571399126278, 276.947229265049)"
       opacity="0.7"
       fill="#00003f"
       fill-rule="evenodd"
       stroke="#000000"
       stroke-opacity="0"
       stroke-width="0"
       stroke-linecap="square"
       stroke-linejoin="bevel"
       d="M2.4726 0.0527707C5.5976 -0.405229 5.6696 2.18977 5.4726 5.05277C15.3576 4.27177 23.1816 1.42877 34.4726 2.05277C35.2496 2.94277 35.5476 4.31077 35.4726 6.05277C39.7836 5.92777 43.1656 3.68077 44.4726 8.05277C38.4116 15.9908 26.3916 17.9728 12.4726 18.0528C11.1896 16.7398 11.1896 14.3658 12.4726 13.0528C8.2136 13.4608 3.6016 13.5148 0.472601 15.0528C-1.3804 11.4968 2.8386 5.44677 2.4726 0.0527707Z" />
    <path
       id="shape43"
       transform="translate(45.6017716344174, 279)"
       opacity="0.7"
       fill="#00003f"
       fill-rule="evenodd"
       stroke="#000000"
       stroke-opacity="0"
       stroke-width="0"
       stroke-linecap="square"
       stroke-linejoin="bevel"
       d="M68.4422 4C68.8382 6.396 63.8872 3.445 65.4422 7C67.5372 9.331 72.3432 10.281 77.4422 12C76.5592 19.287 66.6032 18.384 60.4422 19C41.5052 20.894 19.0832 22.539 0.442228 25C-2.16777 20.595 7.68023 21.24 6.44223 15C25.0012 9.226 45.2902 5.182 64.4422 0C66.7902 0.319 66.6802 3.095 68.4422 4Z" />
    <path
       id="shape44"
       transform="translate(228.044, 285.056530577499)"
       opacity="0.7"
       fill="#00003f"
       fill-rule="evenodd"
       stroke="#000000"
       stroke-opacity="0"
       stroke-width="0"
       stroke-linecap="square"
       stroke-linejoin="bevel"
       d="M11 3.94347C10.844 8.12047 6.087 7.69747 3 8.94347C1.593 7.01747 0.357 4.92047 0 1.94347C2.905 0.0634694 11.059 -2.02553 11 3.94347Z" />
    <path
       id="shape45"
       transform="translate(494.044, 287.618677594575)"
       opacity="0.7"
       fill="#00003f"
       fill-rule="evenodd"
       stroke="#000000"
       stroke-opacity="0"
       stroke-width="0"
       stroke-linecap="square"
       stroke-linejoin="bevel"
       d="M365 18.3813C315.586 14.3873 264.94 13.9583 213 17.3813C162.078 20.7373 110.435 22.3403 62 28.3813C130.004 38.7503 210.493 37.4923 277 50.3813C244.932 52.6043 184.64 42.1483 157 53.3813C160.351 44.0663 175.029 46.0763 187 45.3813C146.179 36.5113 90.249 41.3533 50 30.3813C59.819 21.3303 78.139 23.1503 95 21.3813C142.246 16.4263 196.543 13.8403 246 11.3813C170.377 1.90632 77.218 1.43332 0 7.38132C78.416 -4.67968 168.237 0.304322 250 6.38132C283.261 8.85432 315.966 6.58332 346 9.38132C352.99 10.0323 361.767 10.0173 365 18.3813Z" />
    <path
       id="shape46"
       transform="translate(140.043749774868, 294.486872975911)"
       opacity="0.7"
       fill="#00003f"
       fill-rule="evenodd"
       stroke="#000000"
       stroke-opacity="0"
       stroke-width="0"
       stroke-linecap="square"
       stroke-linejoin="bevel"
       d="M72.0003 5.51313C59.8343 10.0991 47.1003 11.7421 35.0003 15.5131C23.4063 19.1271 12.7433 27.6431 0.000250225 25.5131C-0.0667498 16.3811 13.3363 13.5561 22.0003 9.51313C39.6773 1.26413 53.8693 -4.96287 72.0003 5.51313Z" />
  </g>
  <path
     id="shape47"
     transform="matrix(0.719999994922123 0 0 0.719999994922123 419.042980297929 76.3198975010626)"
     fill="#ffffff"
     fill-rule="evenodd"
     stroke="#000000"
     stroke-opacity="0"
     stroke-width="0"
     stroke-linecap="square"
     stroke-linejoin="bevel"
     d="M0.0398566 0.000142913C4.07586 -0.0368571 0.917857 7.12214 4.03986 8.00014C2.41186 9.56214 -0.365143 3.78914 0.0398566 0.000142913Z" />
  <path
     id="shape48"
     transform="matrix(0.719999994922123 0 0 0.719999994922123 526.351676287849 96.4800002564328)"
     fill="#ffffff"
     fill-rule="evenodd"
     stroke="#000000"
     stroke-opacity="0"
     stroke-width="0"
     stroke-linecap="square"
     stroke-linejoin="bevel"
     d="M13 0C12.689 6.368 4.098 13.089 0 19C1.865 14.188 7.651 4.66 13 0Z" />
  <path
     id="shape49"
     transform="matrix(0.719999994922123 0 0 0.719999994922123 542.733814260526 105.84000019042)"
     fill="#ffffff"
     fill-rule="evenodd"
     stroke="#000000"
     stroke-opacity="0"
     stroke-width="0"
     stroke-linecap="square"
     stroke-linejoin="bevel"
     d="M8.24703 0C10.354 4.141 2.77903 7.174 0.24703 10C-1.42497 6.295 5.85103 2.962 8.24703 0Z" />
  <path
     id="shape50"
     transform="matrix(0.719999994922123 0 0 0.719999994922123 432.932331124078 119.520000093941)"
     fill="#ffffff"
     fill-rule="evenodd"
     stroke="#000000"
     stroke-opacity="0"
     stroke-width="0"
     stroke-linecap="square"
     stroke-linejoin="bevel"
     d="M2.74909 0C2.59909 2.483 3.26609 4.15 4.74909 5C4.15309 6.914 -4.20391 0.066 2.74909 0Z" />
  <path
     id="shape51"
     transform="matrix(0.719999994922123 0 0 0.719999994922123 212.604945786479 134.19996861745)"
     fill="#000000"
     fill-rule="evenodd"
     stroke="#000000"
     stroke-opacity="0"
     stroke-width="0"
     stroke-linecap="square"
     stroke-linejoin="bevel"
     d="M22.7594 3.61115C1.64735 7.72015 26.0114 42.9352 32.7594 19.6112C36.3394 31.2002 30.7384 42.2492 23.7594 46.6112C-11.8736 54.5912 -3.99565 -16.5418 24.7594 3.61115C24.3164 5.06515 23.8814 3.50915 22.7594 3.61115ZM10.7594 31.6112C10.0584 35.0732 14.2654 35.1982 15.7594 33.6112C16.4604 30.1492 12.2534 30.0242 10.7594 31.6112Z" />
  <path
     id="shape52"
     transform="matrix(0.719999994922123 0 0 0.719999994922123 416.911677059686 138.959999956838)"
     fill="#ffffff"
     fill-rule="evenodd"
     stroke="#000000"
     stroke-opacity="0"
     stroke-width="0"
     stroke-linecap="square"
     stroke-linejoin="bevel"
     d="M73 0C75.056 1.8 70.328 5.271 71 9C71.189 9.81 72.003 9.997 72 11C79.677 9.406 83.783 11.272 90 5C86.829 9.387 88.793 13.062 85 16C91.164 17.932 94.494 8.998 100 7C96.872 12.538 91.052 15.386 88 21C97.274 24.149 104.235 16.561 110 20C109.303 22.636 105.447 22.114 105 25C104.846 27.487 106.571 28.096 107 30C113.257 26.896 116.073 31.414 121 30C122.805 34.138 111.105 38.967 118 42C121.216 37.349 126.385 36.165 132 40C128.894 44.894 120.211 44.211 117 49C118.799 50.234 125.857 47.691 128 51C127.611 56.364 123.646 55.383 127 60C123.463 60.88 121.848 57.432 121 61C122.836 63.164 126.896 63.104 131 63C130.634 71.765 119.681 66.151 115 65C114.066 65.732 113.485 66.818 113 68C115.375 69.625 119.058 69.942 122 71C120.513 76.487 125.612 75.388 126 79C115.533 77.104 109.333 79.27 101 73C98.948 75.197 97.716 74.24 96 78C93.909 77.424 93.146 75.521 90 76C88.612 81.388 93.809 80.191 93 85C92.371 86.704 89.979 86.646 89 88C86.497 84.836 83.857 81.81 78 82C76.334 80.666 77.666 76.334 76 75C72.234 75.466 72.258 79.845 71 85C67.18 85.487 67.87 81.463 66 80C62.233 79.567 61.446 82.112 60 84C56.104 81.875 48.761 77.026 48 85C44.104 83.992 47.846 81.558 47 78C40.541 69.597 34.463 82.912 32 88C31.103 84.767 28.278 79.699 30 77C30.716 74.284 25.284 77.716 26 75C22.035 78.035 19.926 82.926 12 82C16.098 78.615 16.353 76.579 20 72C14.97 69.643 19.187 68.131 19 63C13.62 62.62 14.167 68.167 9 68C8.54 64.793 4.46 65.207 4 62C8.643 60.976 12.347 59.014 13 54C9.927 50.739 2.396 51.937 0 48C2.209 44.876 12.241 49.574 13 45C13.169 42.831 9.453 44.547 8 44C11.208 39.12 5.233 40.133 5 36C6.334 37.427 10.666 37.427 12 36C12.537 32.463 11.152 30.848 9 30C11.623 28.095 15.219 33.743 20 33C18.003 26.997 9.878 27.122 7 22C13.727 23.257 19.777 25.959 27 24C27.127 22.206 25.775 21.891 26 20C29.804 19.438 32.578 17.25 36 19C36.375 14.625 32.808 14.192 30 13C30 10.333 30 7.667 30 5C33.135 4.532 32.819 7.515 34 9C35.69 7.023 34.703 2.369 40 4C41.063 8.413 38.022 11.729 40 14C46.345 14.679 46.323 8.989 46 3C48.443 2.11 50.336 0.669 54 1C54.261 4.261 52.812 5.812 50 6C50.869 8.908 51.497 7.125 54 7C54.271 11.146 52.687 10.896 54 14C60.91 14.91 60.361 8.361 63 5C68.225 5.225 70.56 2.561 73 0ZM42 65C62.594 65.229 60.577 20.471 34 33C24.495 42.605 27.417 64.838 42 65ZM92 67C107.19 67.317 114.083 30.648 92 33C73.04 35.02 76.705 66.681 92 67Z" />
  <path
     id="shape53"
     transform="matrix(0.719999994922123 0 0 0.719999994922123 437.434438240453 161.126323937688)"
     fill="#000000"
     fill-rule="evenodd"
     stroke="#000000"
     stroke-opacity="0"
     stroke-width="0"
     stroke-linecap="square"
     stroke-linejoin="bevel"
     d="M5.49616 2.21344C32.0732 -10.3156 34.0902 34.4424 13.4962 34.2134C-1.08684 34.0514 -4.00884 11.8184 5.49616 2.21344ZM21.4962 10.2134C20.2282 5.58844 16.4502 4.90444 12.4962 7.21344C0.0251648 14.4924 25.7172 25.6134 21.4962 10.2134Z" />
  <path
     id="shape54"
     transform="matrix(0.719999994922123 0 0 0.719999994922123 473.87650783038 162.64187730171)"
     fill="#000000"
     fill-rule="evenodd"
     stroke="#000000"
     stroke-opacity="0"
     stroke-width="0"
     stroke-linecap="square"
     stroke-linejoin="bevel"
     d="M12.8822 0.108503C34.9652 -2.2435 28.0722 34.4255 12.8822 34.1085C-2.41282 33.7895 -6.07782 2.1285 12.8822 0.108503ZM20.8822 17.1085C23.9632 15.0165 23.1112 8.4615 20.8822 6.1085C10.4202 3.6215 10.6512 19.4175 20.8822 17.1085Z" />
  <path
     id="shape55"
     transform="matrix(0.719999994922123 0 0 0.719999994922123 337.711677618252 25.9200007540647)"
     fill="#000000"
     fill-rule="evenodd"
     stroke="#000000"
     stroke-opacity="0"
     stroke-width="0"
     stroke-linecap="square"
     stroke-linejoin="bevel"
     d="M419 230C421.486 230.682 417.521 233.045 417 234C402.825 233.511 392.121 231.169 383 236C377.955 235.564 369.15 231.467 367 237C372.189 245.811 390.302 241.698 398 248C393.526 254.443 384.325 249.742 378 250C374.49 250.144 371.105 252.062 368 252C350.956 251.656 332.604 244.224 315 244C329.813 252.187 355.004 249.996 369 259C345.55 260.56 327.052 249.867 304 253C301.797 253.3 301.709 255.2 300 255C295.319 254.451 291.823 249.655 286 253C283.824 254.819 288.176 259.181 286 261C280.698 260.825 280.896 260.353 276 261C278.838 258.605 276.987 257.317 277 253C272.221 253.887 273.627 260.96 268 261C264.241 257.425 258.474 255.859 255 252C250.491 253.158 253.028 261.361 249 263C244.074 261.926 242.925 257.075 241 253C239.91 256.629 233.77 258.744 231 255C230.274 258.059 232.726 257.941 232 261C225.696 262.304 224.023 258.977 219 259C219.329 254.671 217.622 252.378 215 251C216.451 254.253 218.465 261.022 216 265C236.442 267.236 258.216 267.89 281 269C292.46 269.559 305.551 269.497 313 275C247.018 274.979 172.643 274.693 107 271C109.225 266.349 115.091 269.916 118 270C157.033 271.127 206.836 268.523 243 271C216.148 266.779 180.446 266.317 152 267C150.573 265.666 150.573 261.334 152 260C150.873 258.616 146.166 262.108 143 262C141.717 260.687 141.717 258.313 143 257C135.037 259.333 128.406 251.11 125 258C117.229 250.701 111.575 261.286 103 262C102.928 258.595 105.941 258.275 108 257C107.574 255.093 105.143 255.19 106 252C98.411 251.744 95.44 256.107 89 257C86.679 254.694 90.851 253.775 90 250C84.863 248.335 81.819 258.657 75 255C75.862 252.195 80.206 252.873 82 251C80.572 248.277 77.152 249.711 72 249C74.029 245.029 78.479 243.479 82 241C76.372 235.825 64.535 243.833 52 241C50.042 239.132 51.691 237.338 52 235C42.716 235.954 32.34 234.025 20 235C20.84 233.839 21.319 232.319 21 230C28.298 228.965 40.922 233.255 41 225C45.57 225.703 54.896 230.254 58 226C43.496 219.504 25.606 216.394 12 209C28.285 208.559 41.393 209.743 55 208C49.844 205.489 44.865 202.802 37 203C36.307 199.693 34.21 197.79 32 196C37.001 196.19 41.256 197.083 45 192C35.031 189.943 21.844 187.865 9 186C8.829 183.163 12.382 184.049 11 180C26.407 180.577 44.809 189.437 63 187C56.183 183.484 44.016 185.317 37 182C40.064 180.639 48.078 182.895 54 182C44.249 178.78 36.212 176.796 28 174C27.601 170.268 28.799 168.133 32 168C22.307 163.026 6.696 163.971 0 156C23.38 160.199 45.683 160.793 69 165C55.83 156.837 31.051 160.282 22 148C28.011 149.323 35.244 149.423 40 152C41.827 150.494 42.353 147.686 44 146C41.118 141.699 33.653 137.263 34 133C30.479 135.871 26.623 133.198 30 130C27.721 129.721 26.241 130.241 26 132C22.045 127.068 11.56 123.458 2 119C6.765 111.145 18.86 127.201 23 116C36.041 122.474 48.619 129.664 64 136C66.63 136.296 64.787 132.12 68 133C57.272 118.395 34.14 116.194 25 100C44.262 103.984 58.622 112.176 73 117C66.561 107.77 49.582 100.421 38 93C43.809 90.393 54.205 96.661 61 102C66.929 102.263 68.818 100.348 71 104C72.204 102.871 72.812 101.146 76 102C75.159 96.014 61.734 92.484 64 90C63.018 88 55.8 91.1 58 88C63.915 85.004 76.319 94.619 83 100C86.078 100.745 84.922 97.255 88 98C81.926 83.741 66.138 79.195 55 70C60.596 69.088 67.115 75.872 72 79C67.323 68.34 50.852 60.817 43 50C47.98 46.723 53.921 51.052 55 55C69.466 49.019 69.544 73.435 84 74C84.046 70.598 76.807 65.877 76 60C95.26 67.407 101.985 87.348 118 98C114.631 93.007 112.439 88.065 109 84C107.989 82.806 104.803 81.757 104 80C102.198 76.055 104.868 71.579 104 67C100.93 50.806 83.268 40.231 79 23C100 31.214 101.291 53.33 121 62C122.217 65.45 124.304 68.029 127 70C124.74 60.593 118.495 55.171 116 46C120.554 51.779 123.829 58.838 128 65C130.753 63.801 132.177 62.828 135 64C140.189 72.867 139.429 85.712 146 91C146.536 81.508 139.369 62.565 129 55C130.708 50.374 134.582 55.328 137 56C136.171 43.463 120.018 22.793 128 8C139.707 23.959 146.112 45.222 156 63C162.479 55.06 153.651 41.078 154 36C162.46 33.696 162.037 48.514 166 54C162.064 59.484 159.706 78.302 166 82C168.34 74.064 175.392 57.455 167 51C171.008 41.51 163.046 21.316 169 11C169.81 11.19 169.997 12.003 171 12C174.953 15.111 173.43 30.38 176 38C181.518 28.852 179.939 12.606 191 9C205.038 28.529 193.03 63.75 197 89C202.866 79.932 199.167 56.869 200 46C204.46 48.207 200.817 58.516 202 64C205.475 53.867 208.168 37.371 205 29C215.845 24.518 207.34 5.168 219 3C226.022 20.646 211.781 43.164 219 58C228.794 52.744 227.648 31.383 241 33C247.028 23.361 247.373 8.039 255 0C259.031 2.165 257.412 7.172 257 10C255.1 23.035 243.968 37.57 247 55C252.588 56.06 251.251 50.494 253 48C260.982 36.619 271.601 29.019 275 14C278.159 12.492 279.645 9.311 283 8C284.033 18.707 278.041 31.035 272 38C279.223 41.408 274.301 52.622 275 61C284.661 50.995 290.976 37.643 299 26C299.218 22.342 300.374 22.164 299 19C302.369 17.602 303.268 12.191 308 15C306.892 27.225 301.262 34.929 297 44C303.812 55.945 288.088 68.269 284 79C296.682 71.348 303.665 57.999 313 47C318.393 45.709 320.762 36.118 326 38C329.517 41.735 320.642 49.814 316 52C310.503 60.503 303.046 67.045 297 75C304.089 75.088 303.916 67.916 309 66C304.679 73.684 292.799 82.461 288 93C294.773 89.433 303.535 79.207 309 71C310.904 69.126 311.513 70.891 314 71C325.074 62.733 338.135 55.214 335 38C340.139 37.528 341 41.333 341 46C346.553 45.219 348.567 40.9 353 39C354.35 47.028 340.603 48.594 339 57C341.441 59.687 345.207 55.249 347 59C344.566 64.9 334.743 63.41 334 71C342.672 73.787 354.153 51.587 360 64C344.379 72.045 327.242 78.575 321 96C328.268 97.587 332.586 87.596 341 87C335.515 91.158 337.827 97.61 332 102C341.055 98.98 345.36 86.128 355 87C347.678 92.566 342.29 92.743 337 104C344.818 103.051 355.701 96.776 365 94C368.012 105.78 354.692 109.618 348 115C353.261 120.512 362.743 115.87 365 110C375.656 110.335 383.941 105.947 394 103C390.358 113.029 366.351 111.348 364 126C357.935 127.268 355.18 131.846 349 133C356.711 133.034 366.369 126.376 376 125C368.567 130.901 357.438 133.104 350 139C351.442 143.779 354.896 140.366 358 139C364.375 139.042 370.13 138.463 373 135C378.753 136.965 384.203 134.417 388 133C395.246 135.275 400.39 134.116 409 134C405.852 139.037 392.446 138.394 391 148C385.646 147.646 383.777 150.777 380 152C376.02 148.211 355.489 151.744 353 156C360.288 158.966 377.625 147.652 382 157C381.249 162.249 373.861 160.861 370 163C369.682 165.652 375.602 162.064 374 166C360.887 161.945 346.014 167.916 333 170C352.061 171.97 374.287 163.934 391 166C390.759 167.759 389.279 168.279 387 168C386.616 171.384 391.427 169.573 390 174C397.504 174.098 406.431 169.21 411 175C411.004 181.005 398.924 174.924 401 183C388.262 184.636 373.153 180.419 365 188C373.065 195.32 394.328 185.436 404 191C400.404 196.07 390.724 195.057 383 196C378.815 203.168 369.627 200.729 361 202C366.725 210.812 385.696 208.111 394 209C395.108 210.892 395.275 213.725 396 216C386.338 216.962 379.409 216.171 372 218C385.16 224.39 401.184 223.161 419 228C417.842 228.386 417.842 232.857 419 230ZM187 64C186.027 55.653 188.784 41.633 186 38C185.495 47.238 179.782 57.905 187 64ZM107 60C106.652 64.904 109.484 67.736 113 66C112.454 62.688 109.711 58.02 107 60ZM226 86C230.439 83.356 236.389 74.115 232 69C230.494 75.161 227.957 80.29 226 86ZM117 78C113.878 77.122 117.036 69.963 113 70C112.595 73.789 115.372 79.562 117 78ZM272 81C273.384 77.668 281.941 73.282 277 70C275.673 73.37 268.202 75.829 272 81ZM325 72C314.343 78.093 304.041 89.528 296 98C293.504 100.63 288.578 104.219 290 107C301.722 95.055 318.271 87.938 327 73C326.779 72.221 326.162 71.837 325 72ZM178 98C177.779 94.22 179.017 88.983 175 89C173.01 91.72 173.879 98.265 178 98ZM128 100C125.093 97.574 124.254 93.08 121 91C122.001 94.696 125.018 101.607 128 100ZM262 117C266.098 111.089 274.689 104.368 275 98C269.651 102.66 263.865 112.188 262 117ZM75 110C74.689 106.644 71.655 106.012 69 105C68.105 109.562 72.288 109.045 75 110ZM302 124C311.472 123.369 317.141 113.946 324 114C322.009 110.185 329.797 108.82 327 105C320.126 112.793 308.4 115.734 302 124ZM326 112C329.568 111.235 332.088 109.421 334 107C330.432 107.765 327.912 109.579 326 112ZM285 121C287.532 118.174 295.107 115.141 293 111C290.604 113.962 283.328 117.295 285 121ZM174 125C176.222 121.8 174.052 116.078 171 115C167.879 119.099 172.937 121.932 174 125ZM86 135C85.666 130.667 80.462 131.205 78 129C78.859 132.808 81.569 134.764 86 135ZM137 135C135.517 134.15 134.85 132.483 135 130C128.047 130.066 136.404 136.914 137 135ZM375 142C381.563 142.435 388.971 144.024 393 140C386.685 138.756 379.956 138.831 375 142ZM295 156C293.47 159.073 301.53 159.073 300 156C299.743 153.659 295.606 155.424 295 156ZM188 162C191.405 162.072 191.725 159.059 193 157C191.722 156.945 191.615 155.718 190 156C190.479 159.146 188.576 159.909 188 162ZM173 162C170.361 165.361 170.91 171.91 164 171C162.687 167.896 164.271 168.146 164 164C161.497 164.125 160.869 165.908 160 163C162.812 162.812 164.261 161.261 164 158C160.336 157.669 158.443 159.11 156 160C156.323 165.989 156.345 171.679 150 171C148.022 168.729 151.063 165.413 150 161C144.703 159.369 145.69 164.023 144 166C142.819 164.515 143.135 161.532 140 162C140 164.667 140 167.333 140 170C142.808 171.192 146.375 171.625 146 176C142.578 174.25 139.804 176.438 136 177C135.775 178.891 137.127 179.206 137 181C129.777 182.959 123.727 180.257 117 179C119.878 184.122 128.003 183.997 130 190C125.219 190.743 121.623 185.095 119 187C121.152 187.848 122.537 189.463 122 193C120.666 194.427 116.334 194.427 115 193C115.233 197.133 121.208 196.12 118 201C119.453 201.547 123.169 199.831 123 202C122.241 206.574 112.209 201.876 110 205C112.396 208.937 119.927 207.739 123 211C122.347 216.014 118.643 217.976 114 219C114.46 222.207 118.54 221.793 119 225C124.167 225.167 123.62 219.62 129 220C129.187 225.131 124.97 226.643 130 229C126.353 233.579 126.098 235.615 122 239C129.926 239.926 132.035 235.035 136 232C135.284 234.716 140.716 231.284 140 234C138.278 236.699 141.103 241.767 142 245C144.463 239.912 150.541 226.597 157 235C157.846 238.558 154.104 240.992 158 242C158.761 234.026 166.104 238.875 170 241C171.446 239.112 172.233 236.567 176 237C177.87 238.463 177.18 242.487 181 242C182.258 236.845 182.234 232.466 186 232C187.666 233.334 186.334 237.666 188 239C193.857 238.81 196.497 241.836 199 245C199.979 243.646 202.371 243.704 203 242C203.809 237.191 198.612 238.388 200 233C203.146 232.521 203.909 234.424 206 235C207.716 231.24 208.948 232.197 211 230C219.333 236.27 225.533 234.104 236 236C235.612 232.388 230.513 233.487 232 228C229.058 226.942 225.375 226.625 223 225C223.485 223.818 224.066 222.732 225 222C229.681 223.151 240.634 228.765 241 220C236.896 220.104 232.836 220.164 231 218C231.848 214.432 233.463 217.88 237 217C233.646 212.383 237.611 213.364 238 208C235.857 204.691 228.799 207.234 227 206C230.211 201.211 238.894 201.894 242 197C236.385 193.165 231.216 194.349 228 199C221.105 195.967 232.805 191.138 231 187C226.073 188.414 223.257 183.896 217 187C216.571 185.096 214.846 184.487 215 182C215.447 179.114 219.303 179.636 220 177C214.235 173.561 207.274 181.149 198 178C201.052 172.386 206.872 169.538 210 164C204.494 165.998 201.164 174.932 195 173C198.793 170.062 196.829 166.387 200 162C193.783 168.272 189.677 166.406 182 168C182.003 166.997 181.189 166.81 181 166C180.328 162.271 185.056 158.8 183 157C180.56 159.561 178.225 162.225 173 162ZM215 171C220.031 171.334 224.996 166.369 223 163C221.464 166.797 216.092 166.759 215 171ZM353 177C361.756 179.761 377.451 179.278 381 171C374.465 171.923 357.043 170.284 353 177ZM245 194C248.395 192.395 254.265 193.265 256 190C251.985 190.985 245.778 189.778 245 194ZM241 216C248.988 221.875 246.084 210.077 241 216ZM363 220C363.431 217.764 367.929 219.595 370 219C367.874 215.521 345.441 218.817 363 220ZM345 236C346.069 238.613 353.744 237.112 358 236C354.443 235.052 344.575 234.963 345 236ZM185 261C183.241 260.759 182.721 259.279 183 257C176.33 257.172 180.58 262.051 176 264C181.333 264 186.667 264 192 264C192.344 259.656 191.244 256.756 188 256C188.197 258.863 188.124 261.458 185 261ZM202 265C205.695 264.362 211.962 266.295 214 264C210.289 262.711 210.287 257.713 205 258C206.053 262.386 201.618 261.284 202 265ZM164 265C167.333 265 170.667 265 174 265C173.485 260.924 164.383 260.937 164 265Z" />
  <path
     id="shape56"
     transform="matrix(0.719999994922123 0 0 0.719999994922123 172.281832765518 148.904295568092)"
     fill="#000000"
     fill-rule="evenodd"
     stroke="#000000"
     stroke-opacity="0"
     stroke-width="0"
     stroke-linecap="square"
     stroke-linejoin="bevel"
     d="M33.7637 17.1885C39.3267 29.0845 33.0297 44.6435 24.7637 49.1885C-4.75332 54.3625 -5.83932 10.0785 10.7637 0.188478C20.8347 -0.882522 26.2297 2.72148 29.7637 8.18848C27.0897 8.91548 24.1547 4.26248 19.7637 5.18848C-1.03132 9.57448 29.9557 46.3775 33.7637 17.1885ZM11.7637 30.1885C11.2917 35.0455 15.9407 35.8695 17.7637 33.1885C17.5347 29.3575 14.7877 28.7595 11.7637 30.1885Z" />
  <path
     id="shape57"
     transform="matrix(0.719999994922123 0 0 0.719999994922123 20.1767294584261 37.4187337994307)"
     fill="#000000"
     fill-rule="evenodd"
     stroke="#000000"
     stroke-opacity="0"
     stroke-width="0"
     stroke-linecap="square"
     stroke-linejoin="bevel"
     d="M233.021 32.0295C245.284 26.9595 249.108 13.4495 261.021 8.02954C278.215 14.2155 275.898 35.1725 283.021 50.0295C289.756 48.4315 290.423 40.7655 295.021 37.0295C315.214 30.7815 311.755 57.8785 312.021 72.0295C324.08 61.0735 336.179 67.4355 333.021 89.0295C332.687 91.3155 330.084 96.2725 330.021 96.0295C330.408 97.5215 348.1 109.653 350.021 110.03C353.635 110.739 354.897 107.003 357.021 109.03C362.751 111.633 365.955 116.763 370.021 121.03C368.418 144.643 371.431 158.52 377.021 178.03C377.317 182.326 372.276 181.285 371.021 184.03C370.419 193.428 372.266 205.275 370.021 213.03C368.858 212.868 368.242 213.251 368.021 214.03C359.218 216.106 357.743 203.261 348.021 203.03C338.014 210.054 347.516 218.083 350.021 225.03C352.553 232.051 354.308 244.396 351.021 250.03C343.046 263.701 333.716 272.912 314.021 276.03C313.549 270.945 311.69 263.68 313.021 256.03C310.562 255.274 303.172 258.154 297.021 257.03C296.63 254.635 292.648 253.405 292.021 252.03C283.83 234.074 305.076 215.703 318.021 212.03C320.032 206.374 322.088 200.764 323.021 194.03C304.209 215.884 276.141 228.483 245.021 238.03C262.041 240.677 270.718 251.666 280.021 262.03C272.442 270.118 262.841 276.183 249.021 278.03C253.208 287.176 261.544 292.174 265.021 302.03C247.013 310.618 228.675 307.32 217.021 297.03C206.057 287.349 206.322 272.665 194.021 264.03C190.451 261.524 184.647 259.809 180.021 257.03C175.493 254.309 171.2 250.27 168.021 249.03C153.482 243.359 135.509 245.218 122.021 236.03C120.797 250.676 119.877 280.177 109.021 278.03C92.3778 274.738 80.6578 235.739 71.0208 222.03C56.9008 226.992 46.9018 236.528 35.0208 245.03C26.3108 251.262 9.02276 262.818 3.02076 246.03C1.90576 242.913 0.110764 230.477 0.0207644 227.03C-0.292236 215.057 2.97476 192.177 7.02076 176.03C10.2318 163.212 17.5328 135.411 30.0208 133.03C39.0518 131.308 44.3178 140.038 51.0208 143.03C56.3868 138.395 54.2418 126.251 62.0208 124.03C62.2318 115.023 57.7588 105.276 66.0208 99.0295C68.6878 99.0295 71.3538 99.0295 74.0208 99.0295C78.5848 92.6995 85.2588 90.8625 88.0208 84.0295C90.9508 76.7795 84.9748 66.0135 95.0208 62.0295C101.184 62.6975 107.482 64.1855 113.021 63.0295C135.597 58.3185 126.038 29.7715 140.021 16.0295C155.378 15.4335 167.441 25.6325 177.021 34.0295C187.95 20.6875 194.22 -9.64046 219.021 3.02954C224.912 11.4715 227.142 23.5755 233.021 32.0295ZM195.021 30.0295C194.714 34.0035 202.011 30.3725 200.021 36.0295C195.013 40.0285 183.169 41.3745 178.021 42.0295C170.519 34.5315 161.699 28.3515 150.021 25.0295C141.384 30.4055 145.343 43.4725 142.021 55.0295C145.527 57.1895 151.145 57.2395 152.021 62.0295C145.283 66.6255 140.331 73.0065 134.021 78.0295C123.263 73.6495 109.85 67.0545 97.0208 68.0295C93.7078 80.9265 104.831 87.3685 105.021 100.03C110.292 100.76 116.136 96.7575 119.021 101.03C115.373 107.856 120.479 112.219 113.021 116.03C112.266 112.452 110.708 109.677 107.021 109.03C93.3178 111.326 80.3748 102.443 70.0208 108.03C74.8748 118.18 86.3028 130.412 100.021 135.03C102.578 137.705 99.4178 140.303 100.021 144.03C98.6078 145.542 95.1638 147.188 93.0208 145.03C108.342 156.06 128.805 167.221 136.021 183.03C113.752 178.921 104.237 152.797 74.0208 156.03C73.7998 156.809 73.1838 157.193 72.0208 157.03C68.0908 162.065 66.5398 169.578 68.0208 178.03C71.1698 195.998 83.8608 219.844 92.0208 240.03C96.1838 250.327 97.6788 260.172 105.021 265.03C106.257 251.458 102.003 234.677 101.021 220.03C100.043 205.446 99.5448 180.253 112.021 182.03C111.812 190.224 119.779 198.04 119.021 210.03C129.059 213.659 132.604 223.781 146.021 224.03C148.121 219.797 148.833 214.175 155.021 214.03C156.196 226.841 175.968 246.075 189.021 254.03C198.823 260.005 211.306 263.051 214.021 270.03C216.885 277.392 213.272 283.857 218.021 289.03C225.824 297.531 239.591 299.052 252.021 297.03C245.955 288.429 240.698 279.019 235.021 270.03C241.394 261.736 261.766 267.442 269.021 260.03C264.711 246.176 238.48 240.838 228.021 253.03C226.787 257.463 225.722 262.064 222.021 264.03C216.592 259.496 207.503 252.584 200.021 244.03C191.454 234.235 176.864 219.916 185.021 213.03C186.163 218.221 191.489 219.228 191.021 226.03C241.157 224.919 284.973 205.315 317.021 180.03C318.535 169.463 328.333 147.634 338.021 161.03C334.671 161.68 331.635 162.644 330.021 165.03C330.542 183.643 336.775 207.224 325.021 218.03C308.81 219.486 300.466 228.808 299.021 245.03C308.948 243.725 315.42 232.541 325.021 237.03C324.048 247.723 320.815 256.157 320.021 267.03C332.434 268.1 343.991 254.124 346.021 241.03C347.57 231.04 342.874 224.865 337.021 218.03C340.132 204.859 347.362 189.811 347.021 174.03C346.61 155.002 340.254 137.755 337.021 124.03C325.453 106.265 310.849 91.5345 297.021 76.0295C284.826 67.6065 273.188 60.8625 260.021 53.0295C246.181 44.7965 233.149 41.3445 219.021 33.0295C219.264 29.9395 223.998 31.3405 223.021 27.0295C219.893 20.4915 218.57 12.1475 214.021 7.02954C199.513 6.43754 201.415 20.6725 195.021 30.0295ZM253.021 30.0295C253.331 35.3855 259.575 34.8085 258.021 42.0295C264.709 41.0085 264.486 46.8975 272.021 45.0295C269.77 34.9475 267.531 24.8525 261.021 19.0295C257.935 22.2765 254.894 25.5695 253.021 30.0295ZM292.021 59.0295C294.524 59.8605 295.948 61.7695 299.021 62.0295C297.31 57.8705 303.308 46.5335 298.021 45.0295C293.193 46.8675 294.435 54.7765 292.021 59.0295ZM321.021 82.0295C322.025 83.3585 321.967 85.7505 324.021 86.0295C324.18 83.6155 328.468 76.6065 324.021 76.0295C323.621 78.6295 321.037 79.0455 321.021 82.0295ZM85.0208 101.03C87.0208 101.03 89.0208 101.03 91.0208 101.03C89.8068 99.2435 90.8378 95.2125 89.0208 94.0295C87.8638 96.5385 85.0368 97.3785 85.0208 101.03ZM359.021 138.03C359.631 132.767 362.764 126.778 362.021 123.03C360.105 113.369 346.67 112.558 343.021 121.03C347.406 128.05 352.905 131.742 354.021 142.03C355.686 157.37 347.973 176.985 360.021 186.03C358.746 175.756 357.025 155.234 359.021 138.03ZM63.0208 142.03C67.0758 142.614 66.1968 137.917 64.0208 137.03C63.1818 138.191 62.7018 139.711 63.0208 142.03ZM28.0208 143.03C16.2998 163.267 9.06276 196.765 10.0208 226.03C10.2668 233.549 6.99276 239.924 14.0208 244.03C26.0368 229.047 38.6528 214.662 52.0208 201.03C48.3058 194.569 48.3698 181.881 50.0208 173.03C48.4908 168.227 43.2558 167.128 43.0208 161.03C44.8948 156.57 47.7068 153.05 49.0208 148.03C43.6188 144.143 35.2528 139.352 28.0208 143.03ZM54.0208 158.03C57.0768 157.307 57.6648 159.052 60.0208 159.03C59.8498 155.31 68.0878 156.998 63.0208 154.03C70.0738 150.475 75.0978 146.423 83.0208 146.03C73.2908 138.218 62.3898 150.875 54.0208 158.03ZM219.021 252.03C221.895 254.408 226.668 249.634 224.021 247.03C223.134 249.476 218.437 248.113 219.021 252.03Z" />
  <path
     id="shape58"
     transform="matrix(0.719999994922123 0 0 0.719999994922123 68.753906905058 42.4671215333135)"
     fill="#ffffff"
     fill-rule="evenodd"
     stroke="#000000"
     stroke-opacity="0"
     stroke-width="0"
     stroke-linecap="square"
     stroke-linejoin="bevel"
     d="M146.552 0.0178876C151.101 5.13589 152.424 13.4799 155.552 20.0179C156.529 24.3289 151.795 22.9279 151.552 26.0179C165.68 34.3329 178.712 37.7849 192.552 46.0179C205.719 53.8509 217.357 60.5949 229.552 69.0179C243.38 84.5229 257.984 99.2529 269.552 117.018C272.785 130.743 279.141 147.99 279.552 167.018C279.893 182.799 272.663 197.847 269.552 211.018C275.405 217.853 280.101 224.028 278.552 234.018C276.522 247.112 264.965 261.088 252.552 260.018C253.346 249.145 256.579 240.711 257.552 230.018C247.951 225.529 241.479 236.713 231.552 238.018C232.997 221.796 241.341 212.474 257.552 211.018C269.306 200.212 263.073 176.631 262.552 158.018C264.166 155.632 267.202 154.668 270.552 154.018C260.864 140.622 251.066 162.451 249.552 173.018C217.504 198.303 173.688 217.907 123.552 219.018C124.02 212.216 118.694 211.209 117.552 206.018C109.395 212.904 123.985 227.223 132.552 237.018C140.034 245.572 149.123 252.484 154.552 257.018C158.253 255.052 159.318 250.451 160.552 246.018C171.011 233.826 197.242 239.164 201.552 253.018C194.297 260.43 173.925 254.724 167.552 263.018C173.229 272.007 178.486 281.417 184.552 290.018C172.122 292.04 158.355 290.519 150.552 282.018C145.803 276.845 149.416 270.38 146.552 263.018C143.837 256.039 131.354 252.993 121.552 247.018C108.499 239.063 88.7275 219.829 87.5525 207.018C81.3645 207.163 80.6525 212.785 78.5525 217.018C65.1355 216.769 61.5905 206.647 51.5525 203.018C52.3105 191.028 44.3435 183.212 44.5525 175.018C32.0765 173.241 32.5745 198.434 33.5525 213.018C34.5345 227.665 38.7885 244.446 37.5525 258.018C30.2105 253.16 28.7155 243.315 24.5525 233.018C16.3925 212.832 3.70146 188.986 0.552462 171.018C-0.928538 162.566 0.622462 155.053 4.55246 150.018C5.71546 150.181 6.33146 149.797 6.55246 149.018C36.7685 145.785 46.2835 171.909 68.5525 176.018C61.3365 160.209 40.8735 149.048 25.5525 138.018C27.6955 140.176 31.1395 138.53 32.5525 137.018C31.9495 133.291 35.1095 130.693 32.5525 128.018C18.8345 123.4 7.40646 111.168 2.55246 101.018C12.9065 95.4309 25.8495 104.314 39.5525 102.018C43.2395 102.665 44.7975 105.44 45.5525 109.018C53.0105 105.207 47.9045 100.844 51.5525 94.0179C48.6675 89.7459 42.8235 93.7479 37.5525 93.0179C37.3625 80.3569 26.2395 73.9149 29.5525 61.0179C42.3815 60.0429 55.7945 66.6379 66.5525 71.0179C72.8625 65.9949 77.8145 59.6139 84.5525 55.0179C83.6765 50.2279 78.0585 50.1779 74.5525 48.0179C77.8745 36.4609 73.9155 23.3939 82.5525 18.0179C94.2305 21.3399 103.05 27.5199 110.552 35.0179C115.7 34.3629 127.544 33.0169 132.552 29.0179C134.542 23.3609 127.245 26.9919 127.552 23.0179C133.946 13.6609 132.044 -0.574112 146.552 0.0178876ZM224.552 131.018C195.797 110.865 187.919 181.998 223.552 174.018C230.531 169.656 236.132 158.607 232.552 147.018C225.804 170.342 201.44 135.127 222.552 131.018C223.674 130.916 224.109 132.472 224.552 131.018ZM163.552 153.018C167.943 152.092 170.878 156.745 173.552 156.018C170.018 150.551 164.623 146.947 154.552 148.018C137.949 157.908 139.035 202.192 168.552 197.018C176.818 192.473 183.115 176.914 177.552 165.018C173.744 194.207 142.757 157.404 163.552 153.018Z" />
</svg>
